# xmcd
#
# Track frame offsets: 
#        150
#        14045
#        30422
#        45842
#        61702
#        79075
#        96330
#        109125
#        132210
#        148835
#        166087
#        181365
#        195157
#        211365
#        234510
#        249310
#        269590
#        288405
#        303140
#
# Disc length: 4299 seconds
#
# Revision: 3
# Processed by: cddbd v1.5.2PL0 Copyright (c) Steve Scherf et al.
# Submitted via: ExactAudioCopyFreeDBPlugin 1.0
#
DISCID=fc10c913
DTITLE=Ian Tyson - All The Good 'Uns
DYEAR=1996
DGENRE=Country
TTITLE0=The Wonder Of It All
TTITLE1=Alberta's Child
TTITLE2=Irving Berlin (Is 100 Yrs Old Today)
TTITLE3=M.C. Horses
TTITLE4=Springtime In Alberta
TTITLE5=Jaquima To Freno
TTITLE6=Navajo Rug
TTITLE7=Claude Dallas
TTITLE8=Magpie
TTITLE9=The Steeldust Line
TTITLE10=Barrel Racing Angel
TTITLE11=Rockies Turn To Rose
TTITLE12=Alcohol In The Bloodstream
TTITLE13=The Old Double Diamond
TTITLE14=Casey Tibbs
TTITLE15=Will James
TTITLE16=Fifty Years Ago
TTITLE17='Til The Circle Is Through
TTITLE18=The Gift
EXTD=
EXTT0=
EXTT1=
EXTT2=
EXTT3=
EXTT4=
EXTT5=
EXTT6=
EXTT7=
EXTT8=
EXTT9=
EXTT10=
EXTT11=
EXTT12=
EXTT13=
EXTT14=
EXTT15=
EXTT16=
EXTT17=
EXTT18=
PLAYORDER=
